<svg width="800" height="800" viewBox="0 0 800 800" fill="none" xmlns="http://www.w3.org/2000/svg">
  <rect width="800" height="800" rx="72" fill="#FDF2F8"/>
  <rect x="140" y="168" width="520" height="392" rx="42" fill="#FFFFFF"/>
  <rect x="180" y="224" width="168" height="112" rx="24" fill="#FCE7F3"/>
  <rect x="452" y="224" width="168" height="112" rx="24" fill="#FCE7F3"/>
  <rect x="180" y="392" width="168" height="112" rx="24" fill="#FCE7F3"/>
  <rect x="452" y="392" width="168" height="112" rx="24" fill="#FCE7F3"/>
  <path d="M242 280H286M264 258V302" stroke="#DB2777" stroke-width="16" stroke-linecap="round"/>
  <path d="M504 282L528 306L574 258" stroke="#DB2777" stroke-width="16" stroke-linecap="round" stroke-linejoin="round"/>
  <circle cx="264" cy="448" r="36" fill="#DB2777"/>
  <path d="M512 456H572M512 430H572M512 482H548" stroke="#DB2777" stroke-width="14" stroke-linecap="round"/>
  <path d="M212 608C265 568 317 568 370 608C423 648 475 648 588 586" stroke="#F472B6" stroke-width="18" stroke-linecap="round"/>
  <text x="400" y="672" text-anchor="middle" font-family="Arial, sans-serif" font-size="46" font-weight="700" fill="#9D174D">Rally</text>
</svg>
