<svg width="800" height="800" viewBox="0 0 800 800" fill="none" xmlns="http://www.w3.org/2000/svg">
  <rect width="800" height="800" rx="72" fill="#EEF2FF"/>
  <rect x="120" y="150" width="560" height="500" rx="40" fill="#FFFFFF"/>
  <rect x="120" y="150" width="560" height="84" rx="40" fill="#4F46E5"/>
  <circle cx="176" cy="192" r="14" fill="#C7D2FE"/>
  <circle cx="220" cy="192" r="14" fill="#C7D2FE"/>
  <circle cx="264" cy="192" r="14" fill="#C7D2FE"/>
  <rect x="170" y="286" width="210" height="28" rx="14" fill="#6366F1"/>
  <rect x="170" y="338" width="300" height="20" rx="10" fill="#C7D2FE"/>
  <rect x="170" y="382" width="250" height="20" rx="10" fill="#C7D2FE"/>
  <rect x="170" y="452" width="130" height="92" rx="20" fill="#E0E7FF"/>
  <rect x="335" y="452" width="130" height="92" rx="20" fill="#E0E7FF"/>
  <rect x="500" y="452" width="130" height="92" rx="20" fill="#E0E7FF"/>
  <path d="M236 476V520M214 498H258" stroke="#4F46E5" stroke-width="18" stroke-linecap="round"/>
  <path d="M377 478H423M377 498H423M377 518H407" stroke="#4F46E5" stroke-width="16" stroke-linecap="round"/>
  <path d="M536 518L564 478L594 518" stroke="#4F46E5" stroke-width="16" stroke-linecap="round" stroke-linejoin="round"/>
  <text x="400" y="612" text-anchor="middle" font-family="Arial, sans-serif" font-size="44" font-weight="700" fill="#312E81">WorkSync</text>
</svg>
