<svg width="800" height="800" viewBox="0 0 800 800" fill="none" xmlns="http://www.w3.org/2000/svg">
  <rect width="800" height="800" rx="72" fill="#F0FDF4"/>
  <rect x="150" y="170" width="500" height="460" rx="42" fill="#FFFFFF"/>
  <rect x="150" y="170" width="500" height="92" rx="42" fill="#22C55E"/>
  <path d="M258 134V202M542 134V202" stroke="#15803D" stroke-width="22" stroke-linecap="round"/>
  <rect x="214" y="322" width="96" height="70" rx="18" fill="#DCFCE7"/>
  <rect x="352" y="322" width="96" height="70" rx="18" fill="#DCFCE7"/>
  <rect x="490" y="322" width="96" height="70" rx="18" fill="#DCFCE7"/>
  <rect x="214" y="434" width="96" height="70" rx="18" fill="#DCFCE7"/>
  <rect x="352" y="434" width="96" height="70" rx="18" fill="#22C55E"/>
  <rect x="490" y="434" width="96" height="70" rx="18" fill="#DCFCE7"/>
  <path d="M382 470L398 486L426 452" stroke="#FFFFFF" stroke-width="14" stroke-linecap="round" stroke-linejoin="round"/>
  <text x="400" y="228" text-anchor="middle" font-family="Arial, sans-serif" font-size="42" font-weight="700" fill="#FFFFFF">TimeSlot</text>
  <text x="400" y="594" text-anchor="middle" font-family="Arial, sans-serif" font-size="34" font-weight="700" fill="#166534">„¦Ł</text>
</svg>
